<svg id="visual" viewBox="0 0 900 450" width="900" height="450" xmlns="http://www.w3.org/2000/svg" xmlns:xlink="http://www.w3.org/1999/xlink" version="1.1"><rect x="0" y="0" width="900" height="450" fill="#202731"></rect><path d="M0 339L6.5 299.2C13 259.3 26 179.7 39 169.5C52 159.3 65 218.7 78 212.3C91 206 104 134 117.2 118.7C130.3 103.3 143.7 144.7 156.8 166.8C170 189 183 192 196 202.7C209 213.3 222 231.7 235 212.8C248 194 261 138 274 118.7C287 99.3 300 116.7 313 142.3C326 168 339 202 352 225.5C365 249 378 262 391 238.8C404 215.7 417 156.3 430.2 135.2C443.3 114 456.7 131 469.8 157.7C483 184.3 496 220.7 509 219.8C522 219 535 181 548 167.8C561 154.7 574 166.3 587 174.8C600 183.3 613 188.7 626 212.5C639 236.3 652 278.7 665 272.3C678 266 691 211 704 176.7C717 142.3 730 128.7 743.2 115C756.3 101.3 769.7 87.7 782.8 102.3C796 117 809 160 822 162.5C835 165 848 127 861 96.2C874 65.3 887 41.7 893.5 29.8L900 18L900 0L893.5 0C887 0 874 0 861 0C848 0 835 0 822 0C809 0 796 0 782.8 0C769.7 0 756.3 0 743.2 0C730 0 717 0 704 0C691 0 678 0 665 0C652 0 639 0 626 0C613 0 600 0 587 0C574 0 561 0 548 0C535 0 522 0 509 0C496 0 483 0 469.8 0C456.7 0 443.3 0 430.2 0C417 0 404 0 391 0C378 0 365 0 352 0C339 0 326 0 313 0C300 0 287 0 274 0C261 0 248 0 235 0C222 0 209 0 196 0C183 0 170 0 156.8 0C143.7 0 130.3 0 117.2 0C104 0 91 0 78 0C65 0 52 0 39 0C26 0 13 0 6.5 0L0 0Z" fill="#d8d6d5"></path><path d="M0 221L6.5 211.5C13 202 26 183 39 162.7C52 142.3 65 120.7 78 117.8C91 115 104 131 117.2 164.5C130.3 198 143.7 249 156.8 236.2C170 223.3 183 146.7 196 103.2C209 59.7 222 49.3 235 45.5C248 41.7 261 44.3 274 60.2C287 76 300 105 313 101.5C326 98 339 62 352 75.5C365 89 378 152 391 168C404 184 417 153 430.2 137.3C443.3 121.7 456.7 121.3 469.8 123.7C483 126 496 131 509 152.8C522 174.7 535 213.3 548 234C561 254.7 574 257.3 587 257.5C600 257.7 613 255.3 626 233.7C639 212 652 171 665 155.8C678 140.7 691 151.3 704 177.7C717 204 730 246 743.2 224.2C756.3 202.3 769.7 116.7 782.8 89C796 61.3 809 91.7 822 101.2C835 110.7 848 99.3 861 123C874 146.7 887 205.3 893.5 234.7L900 264L900 0L893.5 0C887 0 874 0 861 0C848 0 835 0 822 0C809 0 796 0 782.8 0C769.7 0 756.3 0 743.2 0C730 0 717 0 704 0C691 0 678 0 665 0C652 0 639 0 626 0C613 0 600 0 587 0C574 0 561 0 548 0C535 0 522 0 509 0C496 0 483 0 469.8 0C456.7 0 443.3 0 430.2 0C417 0 404 0 391 0C378 0 365 0 352 0C339 0 326 0 313 0C300 0 287 0 274 0C261 0 248 0 235 0C222 0 209 0 196 0C183 0 170 0 156.8 0C143.7 0 130.3 0 117.2 0C104 0 91 0 78 0C65 0 52 0 39 0C26 0 13 0 6.5 0L0 0Z" fill="#dcdada"></path><path d="M0 226L6.5 228.2C13 230.3 26 234.7 39 228.2C52 221.7 65 204.3 78 194C91 183.7 104 180.3 117.2 182.7C130.3 185 143.7 193 156.8 205.2C170 217.3 183 233.7 196 219.3C209 205 222 160 235 135.3C248 110.7 261 106.3 274 114.5C287 122.7 300 143.3 313 168.5C326 193.7 339 223.3 352 210.5C365 197.7 378 142.3 391 130.7C404 119 417 151 430.2 142.3C443.3 133.7 456.7 84.3 469.8 91.7C483 99 496 163 509 191.8C522 220.7 535 214.3 548 201.5C561 188.7 574 169.3 587 178.7C600 188 613 226 626 225C639 224 652 184 665 166C678 148 691 152 704 156.5C717 161 730 166 743.2 166.3C756.3 166.7 769.7 162.3 782.8 136.8C796 111.3 809 64.7 822 51.8C835 39 848 60 861 79C874 98 887 115 893.5 123.5L900 132L900 0L893.5 0C887 0 874 0 861 0C848 0 835 0 822 0C809 0 796 0 782.8 0C769.7 0 756.3 0 743.2 0C730 0 717 0 704 0C691 0 678 0 665 0C652 0 639 0 626 0C613 0 600 0 587 0C574 0 561 0 548 0C535 0 522 0 509 0C496 0 483 0 469.8 0C456.7 0 443.3 0 430.2 0C417 0 404 0 391 0C378 0 365 0 352 0C339 0 326 0 313 0C300 0 287 0 274 0C261 0 248 0 235 0C222 0 209 0 196 0C183 0 170 0 156.8 0C143.7 0 130.3 0 117.2 0C104 0 91 0 78 0C65 0 52 0 39 0C26 0 13 0 6.5 0L0 0Z" fill="#e0dedf"></path><path d="M0 103L6.5 120.5C13 138 26 173 39 179.5C52 186 65 164 78 164.7C91 165.3 104 188.7 117.2 172.5C130.3 156.3 143.7 100.7 156.8 100C170 99.3 183 153.7 196 182C209 210.3 222 212.7 235 183.3C248 154 261 93 274 63.7C287 34.3 300 36.7 313 60.7C326 84.7 339 130.3 352 145.3C365 160.3 378 144.7 391 122C404 99.3 417 69.7 430.2 54.3C443.3 39 456.7 38 469.8 39.2C483 40.3 496 43.7 509 54C522 64.3 535 81.7 548 104C561 126.3 574 153.7 587 167.8C600 182 613 183 626 178.7C639 174.3 652 164.7 665 162.2C678 159.7 691 164.3 704 146.2C717 128 730 87 743.2 63C756.3 39 769.7 32 782.8 38.7C796 45.3 809 65.7 822 82.5C835 99.3 848 112.7 861 124.8C874 137 887 148 893.5 153.5L900 159L900 0L893.5 0C887 0 874 0 861 0C848 0 835 0 822 0C809 0 796 0 782.8 0C769.7 0 756.3 0 743.2 0C730 0 717 0 704 0C691 0 678 0 665 0C652 0 639 0 626 0C613 0 600 0 587 0C574 0 561 0 548 0C535 0 522 0 509 0C496 0 483 0 469.8 0C456.7 0 443.3 0 430.2 0C417 0 404 0 391 0C378 0 365 0 352 0C339 0 326 0 313 0C300 0 287 0 274 0C261 0 248 0 235 0C222 0 209 0 196 0C183 0 170 0 156.8 0C143.7 0 130.3 0 117.2 0C104 0 91 0 78 0C65 0 52 0 39 0C26 0 13 0 6.5 0L0 0Z" fill="#e4e3e4"></path><path d="M0 51L6.5 48.8C13 46.7 26 42.3 39 61.7C52 81 65 124 78 135.7C91 147.3 104 127.7 117.2 107.2C130.3 86.7 143.7 65.3 156.8 74C170 82.7 183 121.3 196 118.2C209 115 222 70 235 53.8C248 37.7 261 50.3 274 60.7C287 71 300 79 313 92.3C326 105.7 339 124.3 352 119.3C365 114.3 378 85.7 391 91C404 96.3 417 135.7 430.2 151.3C443.3 167 456.7 159 469.8 149.3C483 139.7 496 128.3 509 112C522 95.7 535 74.3 548 67.7C561 61 574 69 587 70.8C600 72.7 613 68.3 626 67.5C639 66.7 652 69.3 665 88.8C678 108.3 691 144.7 704 157.5C717 170.3 730 159.7 743.2 142.2C756.3 124.7 769.7 100.3 782.8 86C796 71.7 809 67.3 822 77.2C835 87 848 111 861 129.8C874 148.7 887 162.3 893.5 169.2L900 176L900 0L893.5 0C887 0 874 0 861 0C848 0 835 0 822 0C809 0 796 0 782.8 0C769.7 0 756.3 0 743.2 0C730 0 717 0 704 0C691 0 678 0 665 0C652 0 639 0 626 0C613 0 600 0 587 0C574 0 561 0 548 0C535 0 522 0 509 0C496 0 483 0 469.8 0C456.7 0 443.3 0 430.2 0C417 0 404 0 391 0C378 0 365 0 352 0C339 0 326 0 313 0C300 0 287 0 274 0C261 0 248 0 235 0C222 0 209 0 196 0C183 0 170 0 156.8 0C143.7 0 130.3 0 117.2 0C104 0 91 0 78 0C65 0 52 0 39 0C26 0 13 0 6.5 0L0 0Z" fill="#e8e7e8"></path><path d="M0 65L6.5 62C13 59 26 53 39 59.7C52 66.3 65 85.7 78 90.8C91 96 104 87 117.2 94.3C130.3 101.7 143.7 125.3 156.8 127.2C170 129 183 109 196 87.3C209 65.7 222 42.3 235 35.2C248 28 261 37 274 40.5C287 44 300 42 313 47.5C326 53 339 66 352 74.5C365 83 378 87 391 97C404 107 417 123 430.2 120.5C443.3 118 456.7 97 469.8 90.3C483 83.7 496 91.3 509 90.7C522 90 535 81 548 76C561 71 574 70 587 74.2C600 78.3 613 87.7 626 78.2C639 68.7 652 40.3 665 32.3C678 24.3 691 36.7 704 47.8C717 59 730 69 743.2 67C756.3 65 769.7 51 782.8 60.3C796 69.7 809 102.3 822 110.5C835 118.7 848 102.3 861 97.5C874 92.7 887 99.3 893.5 102.7L900 106L900 0L893.5 0C887 0 874 0 861 0C848 0 835 0 822 0C809 0 796 0 782.8 0C769.7 0 756.3 0 743.2 0C730 0 717 0 704 0C691 0 678 0 665 0C652 0 639 0 626 0C613 0 600 0 587 0C574 0 561 0 548 0C535 0 522 0 509 0C496 0 483 0 469.8 0C456.7 0 443.3 0 430.2 0C417 0 404 0 391 0C378 0 365 0 352 0C339 0 326 0 313 0C300 0 287 0 274 0C261 0 248 0 235 0C222 0 209 0 196 0C183 0 170 0 156.8 0C143.7 0 130.3 0 117.2 0C104 0 91 0 78 0C65 0 52 0 39 0C26 0 13 0 6.5 0L0 0Z" fill="#ecebed"></path><path d="M0 28L6.5 27.5C13 27 26 26 39 23.7C52 21.3 65 17.7 78 21.8C91 26 104 38 117.2 43.5C130.3 49 143.7 48 156.8 51.7C170 55.3 183 63.7 196 70.7C209 77.7 222 83.3 235 78.5C248 73.7 261 58.3 274 54C287 49.7 300 56.3 313 56.7C326 57 339 51 352 44.3C365 37.7 378 30.3 391 36.2C404 42 417 61 430.2 71.3C443.3 81.7 456.7 83.3 469.8 81.5C483 79.7 496 74.3 509 67.7C522 61 535 53 548 53.7C561 54.3 574 63.7 587 73.8C600 84 613 95 626 100.8C639 106.7 652 107.3 665 95.3C678 83.3 691 58.7 704 57.2C717 55.7 730 77.3 743.2 75.7C756.3 74 769.7 49 782.8 40.5C796 32 809 40 822 53.3C835 66.7 848 85.3 861 93.8C874 102.3 887 100.7 893.5 99.8L900 99L900 0L893.5 0C887 0 874 0 861 0C848 0 835 0 822 0C809 0 796 0 782.8 0C769.7 0 756.3 0 743.2 0C730 0 717 0 704 0C691 0 678 0 665 0C652 0 639 0 626 0C613 0 600 0 587 0C574 0 561 0 548 0C535 0 522 0 509 0C496 0 483 0 469.8 0C456.7 0 443.3 0 430.2 0C417 0 404 0 391 0C378 0 365 0 352 0C339 0 326 0 313 0C300 0 287 0 274 0C261 0 248 0 235 0C222 0 209 0 196 0C183 0 170 0 156.8 0C143.7 0 130.3 0 117.2 0C104 0 91 0 78 0C65 0 52 0 39 0C26 0 13 0 6.5 0L0 0Z" fill="#eff0f1"></path><path d="M0 35L6.5 39.3C13 43.7 26 52.3 39 57.7C52 63 65 65 78 65C91 65 104 63 117.2 52.5C130.3 42 143.7 23 156.8 16.2C170 9.3 183 14.7 196 23C209 31.3 222 42.7 235 44.3C248 46 261 38 274 34.8C287 31.7 300 33.3 313 40.7C326 48 339 61 352 62.3C365 63.7 378 53.3 391 50.8C404 48.3 417 53.7 430.2 50.5C443.3 47.3 456.7 35.7 469.8 34.3C483 33 496 42 509 47.7C522 53.3 535 55.7 548 53.5C561 51.3 574 44.7 587 38C600 31.3 613 24.7 626 23.5C639 22.3 652 26.7 665 34.8C678 43 691 55 704 53.5C717 52 730 37 743.2 35.7C756.3 34.3 769.7 46.7 782.8 51.7C796 56.7 809 54.3 822 46.7C835 39 848 26 861 18.5C874 11 887 9 893.5 8L900 7L900 0L893.5 0C887 0 874 0 861 0C848 0 835 0 822 0C809 0 796 0 782.8 0C769.7 0 756.3 0 743.2 0C730 0 717 0 704 0C691 0 678 0 665 0C652 0 639 0 626 0C613 0 600 0 587 0C574 0 561 0 548 0C535 0 522 0 509 0C496 0 483 0 469.8 0C456.7 0 443.3 0 430.2 0C417 0 404 0 391 0C378 0 365 0 352 0C339 0 326 0 313 0C300 0 287 0 274 0C261 0 248 0 235 0C222 0 209 0 196 0C183 0 170 0 156.8 0C143.7 0 130.3 0 117.2 0C104 0 91 0 78 0C65 0 52 0 39 0C26 0 13 0 6.5 0L0 0Z" fill="#f3f4f5"></path></svg>